<svg xmlns="http://www.w3.org/2000/svg" viewBox="0 0 308.04 505.23"><defs><style>.cls-1{fill:#2d2f92;}.cls-2{fill:#fff;}</style></defs><g id="Layer_2" data-name="Layer 2"><g id="Layer_1-2" data-name="Layer 1"><path class="cls-1" d="M308,52.52C308,21.13,287.15.11,256,.08Q205.05,0,154.15.07C119.37.06,84.58-.1,49.81.12,21.66.3.47,21.68.17,49.86,0,64.74-.12,79.62.19,94.5c.48,23.17,16.72,43.29,39.53,46.8,13.73,2.11,27.93,1.52,41.91,1.55q87.09.22,174.17.07c30.83,0,52.11-21.22,52.21-51.65C308.06,78.35,308,65.44,308,52.52ZM112.61,78.85s0,.08,0,.12H66.94c-.08-.53-.16-1-.23-1.51-.21-1.33-.39-2.49-.58-3.67-.49-3.17-.35-5.63.58-7.37a5.26,5.26,0,0,1,2.4-2.33C70.74,63.28,73,63,76,63.28c8,.73,16.16.13,24.25.16,4.88,0,8.08,0,10.11.65a4,4,0,0,1,2.22,1.51C114,67.59,113.51,71.42,112.61,78.85Zm128.66,0h-45.9V64.09h45.9Z"/><path d="M112.61,78.85V65.6C114,67.59,113.51,71.42,112.61,78.85Z"/><path d="M110.39,64.09H69.11C70.74,63.28,73,63,76,63.28c8,.73,16.16.13,24.25.16C105.16,63.45,108.36,63.46,110.39,64.09Z"/><path d="M66.71,66.42v11c-.21-1.33-.39-2.49-.58-3.67C65.64,70.62,65.78,68.16,66.71,66.42Z"/><path class="cls-1" d="M159.11,219.37c8.1,0,14.54.43,20.9-.12,7.16-.62,9,2.22,9,9.09-.24,53.38-.14,106.76-.14,160.14v17.68c-8,0-14.93.3-21.83-.1-5.86-.34-7.86,1.77-7.75,7.67.31,16.56-.17,33.15.23,49.72.2,8-3.23,9.1-10.62,6.65V406.38H120v-187c7.35,0,14.3-.34,21.2.1,6,.38,7.77-1.94,7.66-7.73-.3-15.73-.1-31.46-.1-47.2v-9.4h10.36Z"/><path class="cls-1" d="M66.92,254.11H95.35V441.17c-6.71,0-13.6.35-20.44-.1-6.25-.41-8.27,1.78-8.14,8.11.37,18.48.13,37,.13,56.05H56.14v-44.4c0-19.56,0-19.55-19.19-19.66-2.24,0-4.49-.05-6.72-.2a14.11,14.11,0,0,1-2.89-.94V254.8H55.41c.29-4,.67-7,.68-10q.1-24.42,0-48.86c0-3.58,0-6.65,5-6.74,5.36-.09,5.76,2.93,5.74,7-.08,16,0,32,0,48Z"/><path class="cls-1" d="M280.8,326.87c-7.77,0-14.5.32-21.19-.09-5.87-.36-7.89,1.76-7.71,7.65.35,12,.1,24,.1,36.43H241.66v-43.6h-29v-128H241v-44h11V199h28.8Z"/><path class="cls-2" d="M66.71,77.46c.07.48.15,1,.23,1.51h-.23Z"/><path class="cls-2" d="M66.71,64.09h2.4a5.26,5.26,0,0,0-2.4,2.33Z"/><path class="cls-2" d="M112.61,64.09V65.6a4,4,0,0,0-2.22-1.51Z"/><path class="cls-2" d="M112.59,79s0-.08,0-.12V79Z"/><rect x="55.41" y="189.25" width="11.38" height="65.56"/><rect x="55.41" y="439.67" width="11.38" height="65.56"/><rect x="147.39" y="153.92" width="11.38" height="65.56"/><rect x="147.39" y="405.7" width="11.38" height="65.56"/><rect x="241.01" y="155.11" width="11.38" height="43.84"/><rect x="241.01" y="325.32" width="11.38" height="45.54"/></g></g></svg>