<?xml version="1.0" encoding="utf-8"?>
<!-- Generator: Adobe Illustrator 24.3.0, SVG Export Plug-In . SVG Version: 6.00 Build 0)  -->
<svg version="1.1" id="Layer_1" xmlns="http://www.w3.org/2000/svg" xmlns:xlink="http://www.w3.org/1999/xlink" x="0px" y="0px"
	 viewBox="0 0 56 56" style="enable-background:new 0 0 56 56;" xml:space="preserve">
<style type="text/css">
	.st0{fill:#D1AFFF;}
	.st1{fill:none;stroke:#D1AFFF;}
</style>
<g>
	<g>
		<path class="st0" d="M30.2,24.5c-0.2-0.3-0.4-0.5-0.6-0.8C29.9,23.8,30.2,24.1,30.2,24.5z"/>
		<path class="st0" d="M30.2,26.1v15.1c0,0.6-0.5,1.1-1.1,1.1h-5.3c-0.6,0-1.1-0.5-1.1-1.1V24.6c0-0.6,0.5-1.1,1.1-1.1h4.3
			C28.7,24.5,29.4,25.4,30.2,26.1z"/>
		<path class="st0" d="M20.4,38.5h-5.3c-0.6,0-1.1-0.5-1.1-1.1v-8.9c0-0.6,0.5-1.1,1.1-1.1h5.3c0.6,0,1.1,0.5,1.1,1.1v8.9
			C21.4,38,20.9,38.5,20.4,38.5z"/>
		<path class="st0" d="M17.7,30.5L17.7,30.5c0.6,0,1.1-0.5,1.1-1.1v-7.1c0-0.6-0.5-1.1-1.1-1.1h0c-0.6,0-1.1,0.5-1.1,1.1v7.1
			C16.6,30,17.1,30.5,17.7,30.5z"/>
		<path class="st0" d="M35.3,38.5L35.3,38.5c0.6,0,1.1-0.5,1.1-1.1v-7.1c0-0.6-0.5-1.1-1.1-1.1h0c-0.6,0-1.1,0.5-1.1,1.1v7.1
			C34.2,38,34.7,38.5,35.3,38.5z"/>
		<path class="st0" d="M26.4,44.8L26.4,44.8c0.6,0,1.1-0.5,1.1-1.1v-7.1c0-0.6-0.5-1.1-1.1-1.1h0c-0.6,0-1.1,0.5-1.1,1.1v7.1
			C25.3,44.4,25.8,44.8,26.4,44.8z"/>
		<path class="st0" d="M39,22.2c0,0.2-0.1,0.4-0.2,0.5c-0.2,0.2-0.3,0.2-0.6,0.2c-0.2,0-0.4-0.1-0.6-0.2l-2.3-2.2
			c-0.1-0.1-0.2-0.2-0.2-0.3c0-0.1-0.1-0.2-0.1-0.3v-0.5h1.6v0.2l2.1,2C38.9,21.7,39,21.9,39,22.2z"/>
		<path class="st0" d="M39,24.7v1.8c-0.9,0.4-2,0.6-3.1,0.6c-1,0-2-0.2-2.9-0.5c-0.5-0.2-1-0.5-1.4-0.8v-2.1
			c0.1,0.1,0.1,0.2,0.2,0.2c1.1,1.1,2.5,1.6,4.1,1.6C37.1,25.5,38.1,25.2,39,24.7z"/>
		<path class="st0" d="M35.9,28.2c1.1,0,2.1-0.2,3.1-0.5v1.8c0,0.6-0.5,1.1-1.1,1.1h-5.3c-0.6,0-1.1-0.5-1.1-1.1v-2.3
			C32.9,27.8,34.3,28.2,35.9,28.2z"/>
	</g>
	<path class="st0" d="M43,19.4c-0.2-0.2-0.4-0.2-0.6-0.2c-0.2,0-0.4,0.1-0.6,0.3c-0.2,0.2-0.2,0.4-0.2,0.6c0,1.5-0.6,2.9-1.7,3.9
		c-0.3,0.3-0.6,0.5-1,0.8c-0.9,0.6-1.9,0.8-3.1,0.8c-1.6,0-3-0.5-4.1-1.6c-0.1-0.1-0.2-0.2-0.2-0.2c-1-1-1.4-2.3-1.4-3.7
		c0-1.6,0.6-2.9,1.7-4c1.1-1.1,2.5-1.6,4.1-1.6c0.1,0,0.2,0,0.3,0c0.1,0,0.2,0,0.3,0c0.3,0,0.5,0,0.7-0.2c0.2-0.1,0.3-0.3,0.3-0.6
		c0-0.2-0.1-0.4-0.2-0.5s-0.3-0.2-0.4-0.3c-0.2,0-0.3,0-0.5-0.1c-0.2,0-0.3,0-0.5,0c-2.1,0-3.8,0.7-5.2,2.1
		c-1.4,1.4-2.2,3.1-2.2,5.1c0,1,0.2,1.9,0.6,2.8c0.1,0.3,0.3,0.7,0.5,1c0.2,0.3,0.4,0.6,0.6,0.8c0.1,0.2,0.3,0.3,0.5,0.5
		c0.3,0.3,0.6,0.5,0.9,0.8c0.4,0.3,0.9,0.6,1.4,0.8c0.9,0.4,1.9,0.5,2.9,0.5c1.1,0,2.2-0.2,3.1-0.6c0.8-0.3,1.5-0.8,2.2-1.5
		c1.4-1.4,2.1-3.1,2.1-5.1v0C43.3,19.7,43.2,19.5,43,19.4z M45.5,13.8c-0.2-0.2-0.4-0.2-0.6-0.2h-1.6V12c0-0.2-0.1-0.4-0.2-0.6
		c-0.2-0.1-0.3-0.2-0.6-0.2c-0.2,0-0.4,0.1-0.6,0.2c-0.2,0.2-0.2,0.3-0.2,0.6v1.6H40c-0.2,0-0.4,0.1-0.6,0.2
		c-0.2,0.2-0.2,0.3-0.2,0.6c0,0.2,0.1,0.4,0.2,0.6c0.2,0.2,0.4,0.2,0.6,0.2h1.6v1.6c0,0.2,0.1,0.4,0.2,0.6c0.2,0.1,0.3,0.2,0.6,0.2
		c0.2,0,0.4-0.1,0.6-0.2c0.2-0.2,0.2-0.3,0.2-0.6v-1.6h1.6c0.2,0,0.4-0.1,0.6-0.2c0.2-0.2,0.2-0.3,0.2-0.6
		C45.8,14.1,45.7,13.9,45.5,13.8z M38.8,21.6l-2.1-2v-2.9c0-0.2-0.1-0.4-0.2-0.6c-0.2-0.2-0.3-0.2-0.6-0.2c-0.2,0-0.4,0.1-0.6,0.2
		c-0.2,0.1-0.2,0.3-0.2,0.6v3.2c0,0.1,0,0.2,0.1,0.3c0,0.1,0.1,0.2,0.2,0.3l2.3,2.2c0.2,0.2,0.3,0.2,0.6,0.2c0.2,0,0.4-0.1,0.6-0.2
		c0.1-0.1,0.2-0.3,0.2-0.5C39,21.9,38.9,21.7,38.8,21.6z"/>
</g>
<path class="st1" d="M12,0.5h32c6.4,0,11.5,5.1,11.5,11.5v32c0,6.4-5.1,11.5-11.5,11.5H12C5.6,55.5,0.5,50.4,0.5,44V12
	C0.5,5.6,5.6,0.5,12,0.5z"/>
</svg>
